<svg width="100" height="100" xmlns="http://www.w3.org/2000/svg"><g transform="translate(9 12)" fill="none" fill-rule="evenodd"><path d="M84.09 4a4 4 0 0 0-4-4h-26a4 4 0 0 0-4 4v2h34V4z" fill-opacity=".6" fill="#AAA"/><path d="M50.09 6v16a4 4 0 0 0 4 4h26a4 4 0 0 0 4-4V6h-34z" fill-opacity=".3" fill="#AAA"/><path d="M0 16a4 4 0 0 1 4-4h62a4 4 0 0 1 4 4v4H0v-4z" fill="#357DB6"/><path d="M70 20v44a4 4 0 0 1-4 4H4a4 4 0 0 1-4-4V20h70z" fill="#E6E6E6"/><rect fill="silver" x="36" y="26" width="28" height="34" rx="1"/><rect fill="#6ACCF2" x="6" y="26" width="24" height="16" rx="1"/><rect fill="#6ACCF2" x="6" y="48" width="24" height="4" rx="1"/><rect fill="#6ACCF2" x="6" y="56" width="24" height="4" rx="1"/><path d="M56.24 43.4a10.67 10.67 0 0 0-.82-1.14L48.64 49c.35.292.722.56 1.11.8l3.15 1.89a3.8 3.8 0 0 0 5.21-5.21l-1.87-3.08z" fill="#2F6894"/><path d="M50.29 39.1L45.56 38a1 1 0 0 0-1.19 1.2l1.09 4.8a9.3 9.3 0 0 0 3.18 5l3-.71a4.19 4.19 0 0 0 3.07-3l.76-3a9.28 9.28 0 0 0-5.18-3.19z" fill="#4495D4"/><path d="M55.73 54.81l1.17 2 6.26-6.26-2-1.18a3 3 0 0 0-3.67.46l-1.35 1.35a3 3 0 0 0-.41 3.63z" fill="#FFF"/><path d="M85.61 74.55l-6.49-10.82A26.59 26.59 0 0 0 70 54.62l-6.84-4.11L60 53.67l-3.1 3.1 4.1 6.84a26.59 26.59 0 0 0 9.11 9.12l10.82 6.49a3.4 3.4 0 0 0 4.12-.49 3.42 3.42 0 0 0 .56-4.18z" fill="#6ACCF2"/><path d="M83.24 76.92l-10.82-6.49a26.59 26.59 0 0 1-9.11-9.12l-4.11-6.84-2.3 2.3 4.1 6.84a26.59 26.59 0 0 0 9.11 9.12l10.82 6.49a3.4 3.4 0 0 0 4.12-.49l-1.81-1.81z" fill="#4495D4"/><path d="M76 42.24L80.24 38M80.8 48.45L86 48" stroke-opacity=".6" stroke="#AAA" stroke-width="3" stroke-linecap="round"/></g></svg>