<svg width="100" height="100" xmlns="http://www.w3.org/2000/svg"><g fill="none" fill-rule="evenodd"><path d="M78 72.985l8-5.992c-4.52-.876-9.296.425-13.322 2.258L78 61c-4.028 1.332-8.555 3.72-10.58 6.759C65.413 64.773 62.208 62.413 58 61v11.985c.017.034 20 0 20 0" fill="#5A9C4B"/><path d="M72 56.539C72 69.794 63.046 75 52 75s-20-5.206-20-18.461C32 43.284 40.954 27 52 27s20 16.284 20 29.539" fill="#E6E6E6"/><path d="M58.643 29c4.52 5.938 7.418 14.482 7.418 22.043 0 13.231-8.862 18.428-19.795 18.428-4.188 0-8.067-.772-11.266-2.457C38.405 72.62 44.827 75 52.205 75 63.138 75 72 69.802 72 56.572 72 46.07 66.414 33.672 58.643 29" fill="silver"/><path d="M78 73H26a4 4 0 0 0-4 4v2h60v-2a4 4 0 0 0-4-4" fill="#6FBF5C"/><path d="M30 72.985l-8-5.992c4.52-.876 9.296.425 13.322 2.258L30 61c4.028 1.332 8.555 3.72 10.58 6.759C42.586 64.773 45.792 62.413 50 61l-4 11.985c-.016.034-16 0-16 0" fill="#6FBF5C"/><path d="M25.513 33l-6.008-3M22.509 41.5h-7.01M31.47 26.45l-4.956-4.95" stroke-opacity=".6" stroke="#AAA" stroke-width="3" stroke-linecap="round"/><path d="M50.035 43l-4.975-5-4.975 5h-5.814c-.09.211-.184.419-.271.632L40.085 48l4.975-5 4.975 5L57 43h-6.965z" fill="silver"/></g></svg>